<svg width="24" height="24" viewBox="0 0 24 24" fill="none" xmlns="http://www.w3.org/2000/svg">
<path d="M5 6.2C5 5.07989 5 4.51984 5.21799 4.09202C5.40973 3.71569 5.71569 3.40973 6.09202 3.21799C6.51984 3 7.07989 3 8.2 3H13.6745C14.1637 3 14.4083 3 14.6385 3.05526C14.8425 3.10425 15.0376 3.18506 15.2166 3.29472C15.4184 3.4184 15.5914 3.59135 15.9373 3.93726L18.0627 6.06274C18.4086 6.40865 18.5816 6.5816 18.7053 6.78343C18.8149 6.96237 18.8957 7.15746 18.9447 7.36154C19 7.59171 19 7.8363 19 8.32548V17.8C19 18.9201 19 19.4802 18.782 19.908C18.5903 20.2843 18.2843 20.5903 17.908 20.782C17.4802 21 16.9201 21 15.8 21H8.2C7.07989 21 6.51984 21 6.09202 20.782C5.71569 20.5903 5.40973 20.2843 5.21799 19.908C5 19.4802 5 18.9201 5 17.8V6.2Z" stroke="black" stroke-width="1.5"/>
<path d="M14 3V7C14 7.55228 14.4477 8 15 8H19" stroke="black" stroke-width="1.5"/>
<path d="M14 14H10M12 16V12" stroke="black" stroke-width="1.5" stroke-linecap="round"/>
</svg>
